<?xml version="1.0" encoding="utf-8"?>
<!-- Generator: Adobe Illustrator 16.0.0, SVG Export Plug-In . SVG Version: 6.00 Build 0)  -->
<!DOCTYPE svg PUBLIC "-//W3C//DTD SVG 1.1//EN" "http://www.w3.org/Graphics/SVG/1.1/DTD/svg11.dtd">
<svg version="1.1" id="Layer_1" xmlns="http://www.w3.org/2000/svg" xmlns:xlink="http://www.w3.org/1999/xlink" x="0px" y="0px"
	 width="377px" height="278px" viewBox="0 0 377 278" enable-background="new 0 0 377 278" xml:space="preserve">
<polygon points="26.73,217.068 26.73,262.651 17.618,263.812 17.618,218.298 "/>
<path d="M54.585,213.314v27.41c0,3.137-0.772,6.323-2.312,9.56c-3.023,6.466-8.342,10.18-15.959,11.148l-4.532,0.577v-9.087
	l4.532-0.584c3.871-0.498,6.546-2.359,8.026-5.585c0.724-1.676,1.086-3.287,1.086-4.837v-27.369L54.585,213.314z"/>
<polygon points="96.372,207.682 75.408,247.306 96.372,244.607 96.372,253.792 59.921,258.43 80.933,218.97 59.921,221.771 
	59.921,212.595 "/>
<polygon points="133.34,202.697 133.34,211.985 110.535,215.024 110.535,224.183 129.658,221.662 129.658,230.945 110.535,233.436 
	110.535,242.784 133.34,239.849 133.34,249.089 101.423,253.149 101.423,207 "/>
<path d="M174.983,215.689c0,6.976-2.485,12.436-7.458,16.371l4.485,12.108l-9.679,1.231l-3.446-9.081
	c-0.882,0.18-1.574,0.3-2.078,0.364l-9.16,1.18v9.406l-9.112,1.158v-46.575l18.271-2.465c3.022-0.407,6.06-0.01,9.112,1.191
	C171.963,202.865,174.983,207.905,174.983,215.689 M156.807,227.408c1.479-0.193,2.991-0.775,4.532-1.752
	c3.055-1.977,4.58-4.901,4.58-8.772c0-3.903-1.525-6.409-4.58-7.519c-1.541-0.632-3.052-0.85-4.532-0.653l-9.16,1.221v18.668
	L156.807,227.408z"/>
<path fill="#FFFFFF" d="M184.379,239.831c-2.078-0.738-3.684-1.584-4.815-2.539l3.163-3.801l3.069-3.938
	c0.597,0.505,1.416,0.949,2.455,1.334c2.61,0.925,5.57,1.175,8.876,0.75c5.257-0.678,8.104-2.535,8.546-5.58v-0.194
	c0-0.843-0.301-1.616-0.897-2.317c-1.386-1.411-3.935-1.874-7.648-1.39c-6.516,0.848-11.316-0.371-14.4-3.655
	c-2.141-2.08-3.212-4.686-3.212-7.822c0-0.582,0.049-1.169,0.142-1.764c0.473-3.749,2.268-7.012,5.382-9.79
	c3.179-2.691,7.209-4.368,12.088-5.025c4.659-0.629,8.908-0.278,12.748,1.058c2.047,0.733,3.635,1.576,4.769,2.529l-6.232,7.702
	c0-0.194-0.82-0.604-2.455-1.231c-2.613-0.886-5.556-1.11-8.829-0.674c-5.288,0.705-8.105,2.505-8.452,5.4v0.581
	c0,0.779,0.268,1.422,0.803,1.935c1.384,1.404,3.935,1.861,7.649,1.371c6.482-0.854,11.314,0.378,14.494,3.695
	c2.046,2.17,3.069,4.784,3.069,7.841c0,0.649-0.032,1.271-0.097,1.864c-0.409,3.791-2.216,7.031-5.428,9.716
	c-3.178,2.776-7.193,4.471-12.039,5.086C192.436,241.57,188.188,241.189,184.379,239.831"/>
<polygon fill="#FFFFFF" points="255.201,186.271 255.201,195.694 241.602,197.507 241.602,235.316 232.443,236.48 232.443,198.728 
	218.846,200.54 218.846,191.172 "/>
<polygon fill="#FFFFFF" points="292.265,181.273 292.265,190.803 269.46,193.843 269.46,203.238 288.584,200.72 288.584,210.242 
	269.46,212.733 269.46,222.326 292.265,219.391 292.265,228.87 260.349,232.931 260.349,185.577 "/>
<path fill="#FFFFFF" d="M333.905,194.747c0,7.155-2.483,12.747-7.457,16.769l4.483,12.436l-9.678,1.231l-3.446-9.328
	c-0.882,0.182-1.575,0.303-2.078,0.367l-9.16,1.18v9.649l-9.111,1.159v-47.785l18.271-2.463c3.022-0.408,6.06,0.011,9.111,1.252
	C330.885,181.581,333.905,186.761,333.905,194.747 M315.729,206.706c1.479-0.192,2.99-0.786,4.531-1.78
	c3.054-2.02,4.58-5.015,4.58-8.984c0-4.004-1.526-6.582-4.58-7.73c-1.541-0.653-3.052-0.881-4.531-0.684l-9.16,1.221v19.15
	L315.729,206.706z"/>
<polygon fill="#FFFFFF" points="376.494,169.919 354.776,196.932 376.494,218.154 364.312,219.704 348.025,203.645 348.025,221.776 
	338.911,222.936 338.911,174.986 348.025,173.758 348.025,191.987 364.312,171.562 "/>
<rect x="194.33" y="70.953" transform="matrix(0.1257 0.9921 -0.9921 0.1257 422.1121 24.6717)" width="5.456" height="361.751"/>
<path fill="#BA2A18" d="M212.753,119.764c1.986,14.623-8.257,28.088-22.879,30.076c-14.623,1.987-28.089-8.256-30.076-22.879
	s8.256-28.088,22.878-30.075C197.3,94.898,210.765,105.141,212.753,119.764"/>
<path fill="#BA2A18" d="M376.153,157.082L225.084,176.24l48.695-107.212l16.723-2.272l5.682,41.806l56.588-7.691l-5.683-41.805
	l11.496-1.563l-2.354-17.319l-11.943,1.624L338.606,0l-14.335,1.949l-41.208,5.6l5.439,40.015L66.93,77.677l-5.438-40.015
	l-56.14,7.63l5.397,39.716L0,86.469l2.8,20.604l11.348-1.542l5.086,38.541l55.107-7.388L68.93,96.869l16.949-2.1l74.697,89.653
	L17.277,202.595l0.686,5.414l358.877-45.514L376.153,157.082z M249.012,71.787l-33.313,77.113l-52.158,7.089l-52.687-65.425
	L249.012,71.787z"/>
</svg>
