<?xml version="1.0" encoding="utf-8"?>
<!-- Generator: Adobe Illustrator 19.0.1, SVG Export Plug-In . SVG Version: 6.00 Build 0)  -->
<svg version="1.1" id="Laag_1" xmlns="http://www.w3.org/2000/svg" xmlns:xlink="http://www.w3.org/1999/xlink" x="0px" y="0px"
	 viewBox="0 0 800 600" style="enable-background:new 0 0 800 600;" xml:space="preserve">
<style type="text/css">
	.st0{fill:#FFFFFF;}
</style>
<g>
	<path class="st0" d="M44,388.9c0-2.9,0.5-5.4,1.6-7.3c1.1-1.9,2.4-3.8,4.1-5.5c1.7-1.7,3.7-3.5,5.9-5.3c2.2-1.8,4.5-4,6.9-6.7
		l63.4-87.6c-2.4-1.1-4.4-2.1-6.1-3c-1.7-0.9-3.3-1.8-4.6-2.5c-1.4-0.7-2.8-1.3-4.2-1.7c-1.5-0.4-3-0.6-4.7-0.6
		c-4.2,0-7.7,0.1-10.5,0.2c-2.8,0.1-5.1,0.6-7,1.3c-1.9,0.8-3.6,1.9-5.1,3.5c-1.5,1.5-3.2,3.7-5,6.5c-4.1,6.2-7.5,10.7-10.3,13.6
		c-2.8,2.9-5.3,4.3-7.5,4.3c-2.1,0-3.6-1-4.4-2.9c-0.9-1.9-1.3-4.4-1.3-7.6c0-1.3,0.1-2.7,0.2-4.2c0.1-1.5,0.3-3.1,0.6-4.6
		c2-11.5,4.8-20.7,8.5-27.8c3.7-7.1,7.8-12.6,12.3-16.5c4.5-3.9,9.3-6.5,14.2-7.9c4.9-1.4,9.5-2.1,13.7-2.1c3.2,0,6.3,0.8,9.5,2.3
		c3.2,1.5,6.3,3.2,9.4,5.1c3.1,1.9,6.2,3.6,9.5,5.1c3.2,1.5,6.5,2.4,10,2.5c2.6,0.1,5,0.2,7.2,0.2c2.2,0,4.2,0,6,0
		c5.3,0,9.5-0.1,12.6-0.3c3.2-0.2,5.6-0.4,7.2-0.7c1.6-0.3,2.8-0.5,3.5-0.7c0.7-0.2,1.2-0.3,1.6-0.3c4.6,0,7.9,1.6,10,4.9
		c2,3.3,3.1,7.7,3.1,13.4c0,4.5-0.4,8.4-1.2,11.6c-0.3,1.1-1.6,2.4-3.9,4.1c-2.4,1.7-6.3,3.2-11.8,4.7c-1.6,2.9-4.2,7.1-7.9,12.4
		c-3.7,5.3-7.9,11.3-12.7,17.8c-4.8,6.5-10.1,13.9-16,22.2c-5.9,8.3-11.1,15.4-15.8,21.5c-4.7,6.1-8.8,11.3-12.2,15.8
		c-3.5,4.5-5.8,7.5-7,9.1l-1,4c0.1,0,1.3,0.5,3.6,1.4c2.2,0.9,4.9,2,7.9,3.1c3,1.1,6.2,2.2,9.6,3.1c3.4,0.9,6.3,1.4,8.8,1.4
		c5.5,0,10.6-0.8,15.1-2.5c4.5-1.7,8.8-3.8,12.6-6.3c3.9-2.5,7.5-5.2,10.9-8.1c3.4-2.9,6.6-5.6,9.7-8.1c3.1-2.5,6.2-4.6,9.2-6.3
		c3-1.7,6.2-2.5,9.5-2.5c2.5,0,4.8,0.6,6.8,1.8c2,1.2,3.8,2.7,5.1,4.6c1.4,1.9,2.4,4,3.2,6.3c0.7,2.3,1.1,4.6,1.1,6.9
		c0,3.7-1.5,7.6-4.3,11.6c-2.9,4-6.8,8-11.6,11.8c-4.9,3.8-10.5,7.5-17,11c-6.5,3.5-13.2,6.5-20.2,9.1c-7,2.6-14.2,4.7-21.5,6.2
		c-7.3,1.5-14.2,2.3-20.6,2.3c-0.5,0-1.9-0.3-4.1-0.8c-2.2-0.5-5.2-1.4-8.9-2.6c-3.7-1.2-8-2.7-12.8-4.6c-4.9-1.9-10.2-4.3-16-7.2
		c-5,1.5-9.3,2.3-13,2.3c-3.9,0-7.4-0.7-10.3-2c-2.9-1.3-5.3-3.1-7.2-5.4c-1.9-2.3-3.3-4.9-4.2-7.8C44.5,395.3,44,392.2,44,388.9z"
		/>
	<path class="st0" d="M312.7,272.1c3.8,7.6,6.7,15.7,8.6,24.2c1.9,8.5,2.9,18.1,2.9,28.7c0,7.8-0.9,15.6-2.6,23.5
		c-1.7,7.9-4.2,15.5-7.4,22.9c-3.2,7.4-7.2,14.3-11.8,20.7c-4.7,6.5-10,12-16,16.8c-6,4.7-12.5,8.5-19.6,11.3
		c-7.1,2.8-14.7,4.1-22.7,4.1c-11.6,0-21.5-2.5-29.7-7.6c-8.2-5.1-15-11.7-20.2-19.8c-5.3-8.2-9.1-17.4-11.5-27.6
		c-2.4-10.3-3.7-20.7-3.7-31.2c0-17.4,2.2-32.3,6.5-44.9c4.3-12.6,10.6-23.5,18.7-32.8c8.1-9.3,18-16.6,29.7-21.9
		c11.7-5.3,24.9-8,39.5-8c12.5,0,24.2,1.9,35.1,5.8c10.9,3.9,21.2,9.1,30.7,15.6c9.5,6.5,18.4,14.7,26.7,24.6
		c8.2,9.9,15.9,19.3,23,28.2l-3.8,27.8c-3.6-4.7-8.4-9.9-14.4-15.4c-6.1-5.5-12.5-11.6-19.3-18.4c-6.8-6.7-13.5-12.4-20-17.1
		c-6.6-4.7-12.2-8.6-17-11.7L312.7,272.1z M251.7,386.4c4.5,0,8.8-2.3,13-6.8c4.2-4.5,7.9-10.3,11.1-17.2c3.2-6.9,5.7-15.3,7.6-25.1
		c1.9-9.8,2.9-18.5,2.9-26.2c0-6.1-0.5-11.7-1.4-16.9c-0.9-5.2-2.3-9.7-4.1-13.5c-1.8-3.8-4.2-6.8-7.1-9.1
		c-2.9-2.2-6.4-3.4-10.5-3.4c-5.4,0-10.5,2.3-15.4,6.9c-4.9,4.6-9.2,10.5-12.8,17.7c-3.7,7.2-6.6,15.1-8.7,23.8
		c-2.1,8.7-3.2,18.5-3.2,29.4c0,5.5,0.5,10.7,1.6,15.6c1.1,4.9,2.7,9.1,4.9,12.7c2.2,3.6,5.2,6.5,8.9,8.7
		C242.2,385.3,246.6,386.4,251.7,386.4z"/>
	<path class="st0" d="M487.3,311.4c0,0,10.2-4.8,6-13.8c0,0-4-7.1-9.8-7.7c0,0-4.9-0.3-8.7,4.4c-3,3.7-8.9,10.3-11.6,15.5l-58,101.4
		c-3.2,4.8-6.3,8.2-9.5,10.1c-3.2,2-6.8,2.9-11.1,2.9c-5.7,0-10.1-1.1-13.4-3.4c-3.3-2.3-5.8-5.4-7.5-9.3c-1.7-3.9-2.8-8.4-3.3-13.6
		c-0.5-5.1-0.7-10.6-0.7-16.4c0-7.6,0.3-17.7,0.8-30.3c0.5-12.6,1.3-26.4,2.4-41.4c1.1-15,2.5-30.8,4.2-47.3
		c1.8-16.5,3.9-32.4,6.4-48c1-5.3,2.2-11.9,3.6-19.6c1.4-7.7,3.3-16,5.8-24.7c2.4-8.7,5-17.9,7.7-27.6c2.7-9.6,6-18.9,9.8-27.9
		c3.9-9,8.3-17.6,13.1-25.7c4.9-8.1,10.3-15.3,16.4-21.4c6.1-6.1,12.7-10.9,20-14.5c7.2-3.5,15.2-5.3,23.7-5.3
		c6.7,0,12.2,1.1,16.6,3.2c4.3,2.2,7.8,5.2,10.4,9c2.6,3.9,4.4,8.5,5.4,13.9c1.1,5.4,1.6,11.2,1.6,17.5c0,11.3-1.4,23.4-4.2,36.4
		c-2.8,13-6.4,26-10.8,39.1c-4.3,13.1-9.1,25.7-14.2,38.1c-5.1,12.3-10.1,23.5-14.8,33.4c-4.7,9.9-8.9,18.3-12.5,25.1
		c-3.6,6.8-6,11.3-7.2,13.4l-23.5,35.4l4.7,3c4.7-6.2,9.9-12.9,15.6-20.3c5.7-7.4,11.2-14.4,16.7-21.1c5.5-6.7,11-13.7,16.5-20.9
		c5.5-7.2,9.6-11.8,12.2-13.7c4.1-2.9,9.1-5.5,15-7.5c5.9-2.1,12.5-3.1,19.7-3.1c3.7,0,7.2,0.9,10.6,2.6c3.4,1.7,6.3,4.2,8.8,7.4
		c2.5,3.2,4.5,7.1,5.9,11.7c1.4,4.6,2.2,9.6,2.2,15.3c0,5.5-1.8,12-5.4,19.6c-3.6,7.6-7.4,14.2-11.4,19.8
		c-3.9,5.6-8.2,11.3-12.8,16.9c-4.6,5.6-8.9,11.3-12.8,17c-3.9,5.7-7.2,11.4-9.9,17c-2.6,5.6-3.9,11.3-3.9,16.9
		c0,4.8,1.1,8.3,3.5,10.4c2.3,2.1,5.9,3.1,10.8,3.1c2.6,0,5.5-0.9,8.6-2.7c3.1-1.8,6.3-4.2,9.6-7.1c3.3-2.9,6.6-6.2,10-9.8
		c3.4-3.6,6.6-7.3,9.7-11.1c3.1-3.8,6-7.3,8.8-10.8c2.8-3.4,5.3-6.3,7.5-8.7l11.8,49.2c-4.1,5.5-9.2,10.7-15.5,15.4
		c-6.3,4.7-13,8.9-20.3,12.4c-7.3,3.5-14.9,6.2-22.7,8.2c-7.8,2-15.4,2.9-22.6,2.9c-9.5,0-30.8,0-37.9-3.2
		c-17.5-7.9-19.5-29.5-19.5-29.5c-1.6-19.3,5.1-38.9,5.1-38.9c2-5.6,6.2-12,9.9-18.8C448.6,333.9,459.6,324.1,487.3,311.4z
		 M463.7,92.2c-4.3,0-7.9,1.3-11,3.9c-3.1,2.6-6,6.4-8.7,11.2c-2.7,4.9-5.5,10.8-8.2,17.7c-2.7,7-5.8,14.7-9.3,23.2
		c-1.9,7.7-3.8,15.6-5.8,23.7c-2,8.1-3.6,16.2-4.8,24.1c-1.2,7.9-2.4,15.8-3.6,23.5c-1.2,7.7-2.3,14.9-3.3,21.6
		c-2,16.6-3.6,32.9-4.7,48.9c2.9-8.8,6.1-18.4,9.5-28.7c3.5-10.3,6.9-20.6,10.3-30.7c3.4-10.1,6.6-19.6,9.6-28.5
		c3-8.9,5.5-16.4,7.5-22.6c0.9-2.9,2.3-6.5,4-10.9c1.7-4.3,3.6-9,5.6-14c2-5,4-10.2,6-15.6c2-5.4,3.8-10.6,5.5-15.6
		c1.7-5,3-9.7,4.1-14c1.1-4.3,1.6-8,1.6-11.1C467.9,94.3,466.5,92.2,463.7,92.2z"/>
	<path class="st0" d="M674.4,272.1c3.8,7.6,6.7,15.7,8.6,24.2c1.9,8.5,2.9,18.1,2.9,28.7c0,7.8-0.9,15.6-2.6,23.5
		c-1.7,7.9-4.2,15.5-7.4,22.9c-3.2,7.4-7.2,14.3-11.8,20.7c-4.7,6.5-10,12-16,16.8c-6,4.7-12.5,8.5-19.6,11.3
		c-7.1,2.8-14.7,4.1-22.7,4.1c-11.6,0-21.5-2.5-29.7-7.6c-8.2-5.1-15-11.7-20.2-19.8c-5.3-8.2-9.1-17.4-11.5-27.6
		c-2.4-10.3-3.7-20.7-3.7-31.2c0-17.4,2.2-32.3,6.5-44.9c4.3-12.6,10.6-23.5,18.7-32.8c8.1-9.3,18-16.6,29.7-21.9
		c11.7-5.3,24.9-8,39.5-8c12.5,0,24.2,1.9,35.1,5.8c10.9,3.9,21.2,9.1,30.7,15.6c9.5,6.5,18.4,14.7,26.7,24.6
		c8.2,9.9,15.9,19.3,23,28.2l-3.8,27.8c-3.6-4.7-8.4-9.9-14.4-15.4c-6.1-5.5-12.5-11.6-19.3-18.4c-6.8-6.7-13.5-12.4-20-17.1
		c-6.6-4.7-12.2-8.6-17-11.7L674.4,272.1z M613.4,386.4c4.5,0,8.8-2.3,13-6.8c4.2-4.5,7.9-10.3,11.1-17.2s5.7-15.3,7.6-25.1
		c1.9-9.8,2.9-18.5,2.9-26.2c0-6.1-0.5-11.7-1.4-16.9c-0.9-5.2-2.3-9.7-4.1-13.5c-1.8-3.8-4.2-6.8-7.1-9.1
		c-2.9-2.2-6.4-3.4-10.5-3.4c-5.4,0-10.5,2.3-15.4,6.9c-4.9,4.6-9.2,10.5-12.8,17.7c-3.7,7.2-6.6,15.1-8.7,23.8
		c-2.1,8.7-3.2,18.5-3.2,29.4c0,5.5,0.5,10.7,1.6,15.6c1.1,4.9,2.7,9.1,4.9,12.7c2.2,3.6,5.2,6.5,8.9,8.7
		C603.9,385.3,608.3,386.4,613.4,386.4z"/>
</g>
<g>
	<path class="st0" d="M126.9,502.7v1.4c0,8.5-3,15.7-9,21.7c-6,6-13.2,9-21.6,9c-8.5,0-15.7-3-21.7-9c-6-6-9-13.2-9-21.7
		c0-8.5,3-15.7,9-21.6c6-6,13.2-9,21.7-9c7.9,0,14.7,2.7,20.6,8l-2,2c-5.3-4.8-11.5-7.2-18.6-7.2c-7.7,0-14.3,2.7-19.8,8.2
		c-5.5,5.5-8.2,12.1-8.2,19.7c0,7.7,2.7,14.3,8.2,19.8c5.5,5.5,12.1,8.2,19.8,8.2c7.5,0,13.9-2.6,19.3-7.8
		c5.4-5.1,8.2-11.4,8.6-18.8H98.2v-2.8H126.9z"/>
	<path class="st0" d="M181,493.8c0,5.1-1.7,9.6-5.2,13.5c-3.4,3.8-7.7,6-12.8,6.5l11.5,19.7h-3.2l-11.4-19.6h-24.5v19.6h-2.8v-59.9
		h28.2c5.6,0,10.3,2,14.2,5.9C179.1,483.5,181,488.2,181,493.8z M160.9,511.2c4.8,0,8.9-1.7,12.3-5.1c3.4-3.4,5.1-7.5,5.1-12.3
		c0-4.8-1.7-8.9-5.1-12.3c-3.4-3.4-7.5-5.1-12.3-5.1h-25.5v34.8H160.9z"/>
	<path class="st0" d="M214.6,473.6l24.8,59.9h-3l-5.5-13.4h-37.5l-5.5,13.4h-3l24.8-59.9H214.6z M194.5,517.4h35.2l-17.6-42.5
		L194.5,517.4z"/>
	<path class="st0" d="M271.4,473.6c5.6,0,10.3,2,14.2,5.9c3.9,3.9,5.9,8.7,5.9,14.2c0,5.5-2,10.3-5.9,14.2
		c-3.9,3.9-8.7,5.9-14.2,5.9h-25.5v19.6h-2.8v-59.9H271.4z M271.4,511.2c4.8,0,8.9-1.7,12.3-5.1c3.4-3.4,5.1-7.5,5.1-12.3
		c0-4.8-1.7-8.9-5.1-12.3c-3.4-3.4-7.5-5.1-12.3-5.1h-25.5v34.8H271.4z"/>
	<path class="st0" d="M347.7,473.6v59.9h-2.8V505h-44.8v28.5h-2.8v-59.9h2.8v28.6h44.8v-28.6H347.7z"/>
	<path class="st0" d="M355.8,473.6h2.8v59.9h-2.8V473.6z"/>
	<path class="st0" d="M395.8,532c7.1,0,13.3-2.4,18.6-7.2l2,2c-5.9,5.3-12.7,8-20.6,8c-8.5,0-15.7-3-21.7-9c-6-6-9-13.2-9-21.7
		c0-8.5,3-15.7,9-21.6c6-6,13.2-9,21.7-9c7.9,0,14.7,2.7,20.6,8l-2,2c-5.3-4.8-11.5-7.2-18.6-7.2c-7.7,0-14.3,2.7-19.8,8.2
		c-5.5,5.5-8.2,12.1-8.2,19.7c0,7.7,2.7,14.3,8.2,19.8C381.5,529.3,388.1,532,395.8,532z"/>
	<path class="st0" d="M462.3,473.6c8.2,0,15.3,2.9,21.1,8.8c5.8,5.8,8.8,12.9,8.8,21.1c0,8.2-2.9,15.3-8.8,21.1
		c-5.9,5.8-12.9,8.8-21.1,8.8h-19.1v-59.9H462.3z M462.3,530.8c7.5,0,13.9-2.7,19.2-8c5.3-5.3,8-11.7,8-19.2c0-7.5-2.7-13.9-8-19.2
		c-5.3-5.3-11.7-8-19.2-8h-16.4v54.4H462.3z"/>
	<path class="st0" d="M534.9,473.6v2.8h-34.1v25.8h30.7v2.8h-30.7v25.8h34.1v2.8h-36.9v-59.9H534.9z"/>
	<path class="st0" d="M576.6,517.6c0.3,5.2-1.2,9.4-4.6,12.5c-3,2.8-6.9,4.3-11.6,4.6c-0.3,0-0.7,0-1.2,0c-7.2,0-13.3-2.7-18.3-8
		l2-1.9c3.1,3.3,6.9,5.4,11.4,6.5c2.3,0.5,4.3,0.7,5.9,0.6c3.9-0.2,7.1-1.4,9.6-3.5c3-2.6,4.4-6.1,4.1-10.6c-0.2-3.3-1.5-6-4-7.9
		c-2.5-1.9-6.4-3.4-11.8-4.4l-1.3-0.3c-9.9-2.2-15.1-7.1-15.6-14.8c-0.3-4.4,1.1-8.3,4-11.6c2.9-3.3,6.6-5.1,11.1-5.4
		c2-0.2,4.3,0,6.9,0.6c5.1,1.1,9.4,3.6,12.9,7.3l-2,1.9c-3.1-3.3-7-5.5-11.6-6.5c-2.3-0.5-4.4-0.7-6-0.5c-3.7,0.2-6.8,1.7-9.2,4.5
		c-2.4,2.8-3.5,6-3.3,9.6c0.4,6.6,5.2,10.8,14.6,12.6l1.5,0.3c4.9,1,8.6,2.5,11.2,4.3C574.5,509.8,576.3,513.2,576.6,517.6z"/>
	<path class="st0" d="M584.6,473.6h2.8v59.9h-2.8V473.6z"/>
	<path class="st0" d="M655.3,502.7v1.4c0,8.5-3,15.7-9,21.7c-6,6-13.2,9-21.6,9c-8.5,0-15.7-3-21.7-9c-6-6-9-13.2-9-21.7
		c0-8.5,3-15.7,9-21.6c6-6,13.2-9,21.7-9c7.9,0,14.7,2.7,20.6,8l-2,2c-5.3-4.8-11.5-7.2-18.6-7.2c-7.7,0-14.3,2.7-19.8,8.2
		c-5.5,5.5-8.2,12.1-8.2,19.7c0,7.7,2.7,14.3,8.2,19.8c5.5,5.5,12.1,8.2,19.8,8.2c7.5,0,13.9-2.6,19.3-7.8
		c5.4-5.1,8.2-11.4,8.6-18.8h-25.8v-2.8H655.3z"/>
	<path class="st0" d="M708.4,473.6v59.9h-4.3l-40.4-58.1v58.1H661v-59.9h4.9l39.7,57.2v-57.2H708.4z"/>
</g>
</svg>
